<svg width="32" height="32" viewBox="0 0 32 32" fill="none" xmlns="http://www.w3.org/2000/svg">
<g clip-path="url(#clip0_1037_816)">
<path fill-rule="evenodd" clip-rule="evenodd" d="M17.0657 1.00018C16.3075 0.993107 15.5621 1.1953 14.9115 1.58452L2.77653 8.84373C1.87789 9.3813 2.21439 10.7571 3.25971 10.8193L13.7933 11.4452L11.9071 11.5326L8.01468 11.6724C7.0273 11.7078 6.64387 12.9729 7.44542 13.5505L24.7564 26.0265C25.4605 26.534 26.4393 26.0039 26.3991 25.137L25.8108 12.4457C25.8062 12.3466 25.7924 12.25 25.7703 12.1568L30.1075 12.4146C31.0458 12.4703 31.4888 11.277 30.7414 10.707L18.7882 1.59103C18.2929 1.21327 17.6886 1.00599 17.0657 1.00018Z" fill="#F94E24"/>
<path d="M5.03671 29.049C5.02664 29.6218 5.48282 30.0943 6.05562 30.1044L20.567 30.3595L23.8147 30.3595C24.7707 30.3595 25.2177 29.1761 24.5005 28.544L6.18416 12.4029C5.85242 12.1106 5.33046 12.3408 5.32269 12.7829L5.03671 29.049Z" fill="#052A35"/>
</g>
<defs>
<clipPath id="clip0_1037_816">
<rect width="31.88" height="32" fill="white"/>
</clipPath>
</defs>
</svg>
