<svg width="167" height="49" viewBox="0 0 167 49" fill="none" xmlns="http://www.w3.org/2000/svg">
<path d="M20.343 3.21612C21.1501 2.73329 22.0748 2.48247 23.0153 2.49124V2.49124C23.788 2.49845 24.5376 2.75558 25.1521 3.2242L39.9799 14.5325C40.9071 15.2397 40.3576 16.7199 39.1936 16.6508L5.88897 14.6718C4.59226 14.5948 4.17482 12.888 5.28958 12.2212L20.343 3.21612Z" fill="white"/>
<path d="M33.8628 16.6898C33.8135 15.6249 32.9102 14.8017 31.8454 14.8511L16.6152 15.557L11.7867 15.7304C10.5619 15.7744 10.0862 17.3437 11.0805 18.0603L32.5549 33.5368C33.4283 34.1662 34.6425 33.5087 34.5926 32.4333L33.8628 16.6898Z" fill="white"/>
<path d="M8.09205 36.9264C8.07956 37.637 8.64545 38.2231 9.35601 38.2356L27.3574 38.5521L31.3861 38.5521C32.572 38.5521 33.1266 37.084 32.2368 36.2999L9.51546 16.2769C9.10394 15.9143 8.45644 16.1999 8.4468 16.7483L8.09205 36.9264Z" fill="white"/>
<g opacity="0.6">
<path d="M48.84 39.573C47.9056 39.573 47.0749 39.3876 46.3481 39.0167C45.6361 38.6311 45.0798 38.0971 44.6793 37.4147C44.2937 36.7176 44.1008 35.9166 44.1008 35.0118V28.1811C44.1008 26.8016 44.531 25.7039 45.3913 24.8881C46.2665 24.0574 47.4161 23.6421 48.84 23.6421C50.264 23.6421 51.4062 24.05 52.2665 24.8658C53.1268 25.6817 53.557 26.7645 53.557 28.1143V28.2923C53.557 28.3665 53.5348 28.4258 53.4903 28.4703C53.4458 28.5148 53.3938 28.5371 53.3345 28.5371L51.6435 28.6261C51.4952 28.6261 51.421 28.5519 51.421 28.4036V28.0698C51.421 27.2985 51.1837 26.6755 50.709 26.2008C50.2344 25.7262 49.6114 25.4888 48.84 25.4888C48.0687 25.4888 47.4383 25.7262 46.9488 26.2008C46.4741 26.6755 46.2368 27.2985 46.2368 28.0698V35.1453C46.2368 35.9166 46.4741 36.5396 46.9488 37.0142C47.4383 37.4889 48.0687 37.7262 48.84 37.7262C49.6114 37.7262 50.2344 37.4889 50.709 37.0142C51.1837 36.5396 51.421 35.9166 51.421 35.1453V34.8338C51.421 34.6854 51.4952 34.6113 51.6435 34.6113L53.3345 34.7003C53.4828 34.7003 53.557 34.7744 53.557 34.9228V35.0785C53.557 35.9685 53.3568 36.7547 52.9563 37.437C52.5706 38.1193 52.0218 38.6459 51.3098 39.0167C50.5978 39.3876 49.7745 39.573 48.84 39.573Z" fill="white"/>
<path d="M59.6818 39.5952C58.7325 39.5952 57.8944 39.4024 57.1676 39.0167C56.4556 38.6162 55.8993 38.06 55.4988 37.348C55.0983 36.636 54.8981 35.8127 54.8981 34.8783V28.3368C54.8981 27.4171 55.0983 26.6013 55.4988 25.8893C55.8993 25.1773 56.4556 24.6285 57.1676 24.2428C57.8944 23.8423 58.7325 23.6421 59.6818 23.6421C60.6311 23.6421 61.4692 23.8423 62.196 24.2428C62.9229 24.6285 63.4865 25.1773 63.887 25.8893C64.2875 26.6013 64.4878 27.4171 64.4878 28.3368V34.8783C64.4878 35.8127 64.2875 36.636 63.887 37.348C63.4865 38.06 62.9229 38.6162 62.196 39.0167C61.4692 39.4024 60.6311 39.5952 59.6818 39.5952ZM59.6818 37.7262C60.4828 37.7262 61.128 37.4741 61.6175 36.9697C62.107 36.4654 62.3518 35.7979 62.3518 34.9673V28.2923C62.3518 27.4616 62.107 26.7867 61.6175 26.2676C61.128 25.7484 60.4828 25.4888 59.6818 25.4888C58.8956 25.4888 58.2578 25.7484 57.7683 26.2676C57.2788 26.7867 57.0341 27.4616 57.0341 28.2923V34.9673C57.0341 35.7831 57.2788 36.4506 57.7683 36.9697C58.2578 37.4741 58.8956 37.7262 59.6818 37.7262Z" fill="white"/>
<path d="M74.055 24.0426C74.055 23.8943 74.1292 23.8201 74.2775 23.8201H75.9685C76.1168 23.8201 76.191 23.8943 76.191 24.0426V39.1725C76.191 39.3208 76.1168 39.395 75.9685 39.395H74.1885C74.055 39.395 73.966 39.3431 73.9215 39.2392L68.5593 28.4481C68.5296 28.4184 68.5 28.4036 68.4703 28.4036C68.4555 28.4036 68.4481 28.4258 68.4481 28.4703L68.4703 39.1725C68.4703 39.3208 68.3961 39.395 68.2478 39.395H66.5568C66.4085 39.395 66.3343 39.3208 66.3343 39.1725V24.0426C66.3343 23.8943 66.4085 23.8201 66.5568 23.8201H68.3368C68.4703 23.8201 68.5593 23.872 68.6038 23.9758L73.9438 34.767C73.9734 34.7967 73.9957 34.8115 74.0105 34.8115C74.0402 34.8115 74.055 34.7893 74.055 34.7448V24.0426Z" fill="white"/>
<path d="M82.4858 39.573C81.5365 39.573 80.6984 39.4024 79.9716 39.0612C79.2596 38.7052 78.7033 38.2157 78.3028 37.5927C77.9172 36.9697 77.7243 36.2429 77.7243 35.4122V34.8115C77.7243 34.6632 77.7985 34.589 77.9468 34.589H79.5933C79.7416 34.589 79.8158 34.6632 79.8158 34.8115V35.301C79.8158 36.0278 80.0606 36.6137 80.55 37.0587C81.0544 37.5037 81.7293 37.7262 82.5748 37.7262C83.3313 37.7262 83.9246 37.526 84.3548 37.1255C84.7998 36.7102 85.0223 36.1687 85.0223 35.5012C85.0223 35.0563 84.911 34.6706 84.6885 34.3443C84.466 34.0179 84.1397 33.7138 83.7095 33.432C83.2942 33.1502 82.686 32.7942 81.885 32.364C80.9802 31.8894 80.2534 31.4666 79.7046 31.0958C79.1706 30.725 78.7256 30.2577 78.3696 29.694C78.0136 29.1304 77.8356 28.4481 77.8356 27.6471C77.8356 26.4011 78.2435 25.4221 79.0593 24.7101C79.8751 23.9981 80.958 23.6421 82.3078 23.6421C83.2423 23.6421 84.0655 23.8201 84.7775 24.1761C85.4895 24.5321 86.0383 25.0364 86.424 25.6891C86.8245 26.3269 87.0247 27.0686 87.0247 27.9141V28.4258C87.0247 28.5741 86.9506 28.6483 86.8023 28.6483H85.1335C84.9852 28.6483 84.911 28.5741 84.911 28.4258V27.9586C84.911 27.2317 84.6737 26.6384 84.199 26.1786C83.7244 25.7187 83.0791 25.4888 82.2633 25.4888C81.5365 25.4888 80.9654 25.6742 80.55 26.0451C80.1496 26.4159 79.9493 26.9425 79.9493 27.6248C79.9493 28.0698 80.0457 28.4481 80.2386 28.7595C80.4462 29.071 80.7577 29.3677 81.173 29.6495C81.5884 29.9165 82.204 30.2577 83.0198 30.673C84.0433 31.2515 84.8146 31.7262 85.3338 32.097C85.8678 32.4679 86.2979 32.9203 86.6243 33.4543C86.9654 33.9883 87.136 34.6335 87.136 35.39C87.136 36.6657 86.7133 37.6817 85.8678 38.4382C85.0371 39.1947 83.9098 39.573 82.4858 39.573Z" fill="white"/>
<path d="M97.0631 23.8201C97.2114 23.8201 97.2856 23.8943 97.2856 24.0426V25.4666C97.2856 25.6149 97.2114 25.6891 97.0631 25.6891H93.4808C93.4215 25.6891 93.3919 25.7187 93.3919 25.7781V39.1725C93.3919 39.3208 93.3177 39.395 93.1694 39.395H91.4784C91.33 39.395 91.2559 39.3208 91.2559 39.1725V25.7781C91.2559 25.7187 91.2262 25.6891 91.1669 25.6891H87.7404C87.5921 25.6891 87.5179 25.6149 87.5179 25.4666V24.0426C87.5179 23.8943 87.5921 23.8201 87.7404 23.8201H97.0631Z" fill="white"/>
<path d="M106.16 39.395C106.041 39.395 105.959 39.3356 105.915 39.217L103.334 32.5865C103.319 32.542 103.289 32.5198 103.245 32.5198H100.864C100.805 32.5198 100.775 32.5494 100.775 32.6088V39.1725C100.775 39.3208 100.701 39.395 100.553 39.395H98.8617C98.7133 39.395 98.6392 39.3208 98.6392 39.1725V24.0426C98.6392 23.8943 98.7133 23.8201 98.8617 23.8201H103.846C105.092 23.8201 106.093 24.228 106.849 25.0438C107.606 25.8597 107.984 26.9276 107.984 28.2478C107.984 29.2416 107.754 30.0945 107.294 30.8065C106.835 31.5185 106.204 32.008 105.403 32.275C105.359 32.2899 105.344 32.3269 105.359 32.3863L108.073 39.128L108.095 39.217C108.095 39.3356 108.029 39.395 107.895 39.395H106.16ZM100.864 25.6668C100.805 25.6668 100.775 25.6965 100.775 25.7558V30.7398C100.775 30.7991 100.805 30.8288 100.864 30.8288H103.556C104.239 30.8288 104.788 30.5989 105.203 30.139C105.633 29.6644 105.848 29.0414 105.848 28.2701C105.848 27.4839 105.64 26.8535 105.225 26.3788C104.81 25.9042 104.254 25.6668 103.556 25.6668H100.864Z" fill="white"/>
<path d="M114.107 39.573C113.173 39.573 112.342 39.3801 111.615 38.9945C110.903 38.594 110.347 38.0377 109.947 37.3257C109.561 36.5989 109.368 35.7608 109.368 34.8115V24.0426C109.368 23.8943 109.442 23.8201 109.591 23.8201H111.282C111.43 23.8201 111.504 23.8943 111.504 24.0426V34.945C111.504 35.7757 111.741 36.4506 112.216 36.9697C112.706 37.4741 113.336 37.7262 114.107 37.7262C114.893 37.7262 115.524 37.4741 115.999 36.9697C116.488 36.4506 116.733 35.7757 116.733 34.945V24.0426C116.733 23.8943 116.807 23.8201 116.955 23.8201H118.646C118.795 23.8201 118.869 23.8943 118.869 24.0426V34.8115C118.869 35.7608 118.669 36.5989 118.268 37.3257C117.882 38.0377 117.326 38.594 116.599 38.9945C115.887 39.3801 115.057 39.573 114.107 39.573Z" fill="white"/>
<path d="M125.116 39.573C124.182 39.573 123.351 39.3876 122.624 39.0167C121.912 38.6311 121.356 38.0971 120.955 37.4147C120.57 36.7176 120.377 35.9166 120.377 35.0118V28.1811C120.377 26.8016 120.807 25.7039 121.667 24.8881C122.543 24.0574 123.692 23.6421 125.116 23.6421C126.54 23.6421 127.682 24.05 128.543 24.8658C129.403 25.6817 129.833 26.7645 129.833 28.1143V28.2923C129.833 28.3665 129.811 28.4258 129.766 28.4703C129.722 28.5148 129.67 28.5371 129.611 28.5371L127.92 28.6261C127.771 28.6261 127.697 28.5519 127.697 28.4036V28.0698C127.697 27.2985 127.46 26.6755 126.985 26.2008C126.51 25.7262 125.887 25.4888 125.116 25.4888C124.345 25.4888 123.714 25.7262 123.225 26.2008C122.75 26.6755 122.513 27.2985 122.513 28.0698V35.1453C122.513 35.9166 122.75 36.5396 123.225 37.0142C123.714 37.4889 124.345 37.7262 125.116 37.7262C125.887 37.7262 126.51 37.4889 126.985 37.0142C127.46 36.5396 127.697 35.9166 127.697 35.1453V34.8338C127.697 34.6854 127.771 34.6113 127.92 34.6113L129.611 34.7003C129.759 34.7003 129.833 34.7744 129.833 34.9228V35.0785C129.833 35.9685 129.633 36.7547 129.232 37.437C128.847 38.1193 128.298 38.6459 127.586 39.0167C126.874 39.3876 126.051 39.573 125.116 39.573Z" fill="white"/>
<path d="M140.165 23.8201C140.313 23.8201 140.388 23.8943 140.388 24.0426V25.4666C140.388 25.6149 140.313 25.6891 140.165 25.6891H136.583C136.524 25.6891 136.494 25.7187 136.494 25.7781V39.1725C136.494 39.3208 136.42 39.395 136.271 39.395H134.58C134.432 39.395 134.358 39.3208 134.358 39.1725V25.7781C134.358 25.7187 134.328 25.6891 134.269 25.6891H130.842C130.694 25.6891 130.62 25.6149 130.62 25.4666V24.0426C130.62 23.8943 130.694 23.8201 130.842 23.8201H140.165Z" fill="white"/>
<path d="M141.964 39.395C141.815 39.395 141.741 39.3208 141.741 39.1725V24.0426C141.741 23.8943 141.815 23.8201 141.964 23.8201H143.655C143.803 23.8201 143.877 23.8943 143.877 24.0426V39.1725C143.877 39.3208 143.803 39.395 143.655 39.395H141.964Z" fill="white"/>
<path d="M150.491 39.5952C149.541 39.5952 148.703 39.4024 147.976 39.0167C147.264 38.6162 146.708 38.06 146.308 37.348C145.907 36.636 145.707 35.8127 145.707 34.8783V28.3368C145.707 27.4171 145.907 26.6013 146.308 25.8893C146.708 25.1773 147.264 24.6285 147.976 24.2428C148.703 23.8423 149.541 23.6421 150.491 23.6421C151.44 23.6421 152.278 23.8423 153.005 24.2428C153.732 24.6285 154.295 25.1773 154.696 25.8893C155.096 26.6013 155.297 27.4171 155.297 28.3368V34.8783C155.297 35.8127 155.096 36.636 154.696 37.348C154.295 38.06 153.732 38.6162 153.005 39.0167C152.278 39.4024 151.44 39.5952 150.491 39.5952ZM150.491 37.7262C151.292 37.7262 151.937 37.4741 152.426 36.9697C152.916 36.4654 153.161 35.7979 153.161 34.9673V28.2923C153.161 27.4616 152.916 26.7867 152.426 26.2676C151.937 25.7484 151.292 25.4888 150.491 25.4888C149.704 25.4888 149.067 25.7484 148.577 26.2676C148.088 26.7867 147.843 27.4616 147.843 28.2923V34.9673C147.843 35.7831 148.088 36.4506 148.577 36.9697C149.067 37.4741 149.704 37.7262 150.491 37.7262Z" fill="white"/>
<path d="M164.864 24.0426C164.864 23.8943 164.938 23.8201 165.086 23.8201H166.777C166.926 23.8201 167 23.8943 167 24.0426V39.1725C167 39.3208 166.926 39.395 166.777 39.395H164.997C164.864 39.395 164.775 39.3431 164.73 39.2392L159.368 28.4481C159.338 28.4184 159.309 28.4036 159.279 28.4036C159.264 28.4036 159.257 28.4258 159.257 28.4703L159.279 39.1725C159.279 39.3208 159.205 39.395 159.057 39.395H157.366C157.217 39.395 157.143 39.3208 157.143 39.1725V24.0426C157.143 23.8943 157.217 23.8201 157.366 23.8201H159.146C159.279 23.8201 159.368 23.872 159.413 23.9758L164.753 34.767C164.782 34.7967 164.805 34.8115 164.819 34.8115C164.849 34.8115 164.864 34.7893 164.864 34.7448V24.0426Z" fill="white"/>
</g>
<path d="M51.9331 19.4733C51.7402 19.4733 51.6141 19.3917 51.5548 19.2286L49.1073 13.5771C49.0777 13.5178 49.0332 13.4881 48.9738 13.4881H48.0393C47.9652 13.4881 47.9281 13.5252 47.9281 13.5994V19.1396C47.9281 19.2434 47.8984 19.325 47.8391 19.3843C47.7798 19.4437 47.6982 19.4733 47.5943 19.4733H44.0789C43.975 19.4733 43.8934 19.4437 43.8341 19.3843C43.7748 19.325 43.7451 19.2434 43.7451 19.1396V4.23218C43.7451 4.12835 43.7748 4.04677 43.8341 3.98744C43.8934 3.9281 43.975 3.89844 44.0789 3.89844H50.8206C51.8292 3.89844 52.7118 4.1061 53.4683 4.52143C54.2396 4.93676 54.8329 5.52267 55.2483 6.27917C55.6784 7.02083 55.8935 7.88116 55.8935 8.86015C55.8935 9.83914 55.6488 10.6995 55.1593 11.4411C54.6846 12.168 54.0245 12.702 53.179 13.0431C53.1049 13.0728 53.0826 13.1247 53.1123 13.1989L55.938 19.0728C55.9677 19.1618 55.9825 19.2137 55.9825 19.2286C55.9825 19.3027 55.9529 19.3621 55.8935 19.4066C55.8342 19.4511 55.76 19.4733 55.671 19.4733H51.9331ZM48.0393 7.48066C47.9652 7.48066 47.9281 7.51774 47.9281 7.59191V10.1951C47.9281 10.2693 47.9652 10.3064 48.0393 10.3064H50.1308C50.6055 10.3064 50.9911 10.1803 51.2878 9.92814C51.5845 9.66114 51.7328 9.31998 51.7328 8.90465C51.7328 8.47449 51.5845 8.13332 51.2878 7.88116C50.9911 7.61416 50.6055 7.48066 50.1308 7.48066H48.0393Z" fill="white"/>
<path d="M69.2709 7.14691C69.2709 7.25075 69.2412 7.33233 69.1819 7.39166C69.1226 7.45099 69.041 7.48066 68.9371 7.48066H62.2844C62.2103 7.48066 62.1732 7.51774 62.1732 7.59191V9.68339C62.1732 9.75756 62.2103 9.79464 62.2844 9.79464H66.4007C66.5045 9.79464 66.5861 9.82431 66.6454 9.88364C66.7047 9.94298 66.7344 10.0246 66.7344 10.1284V13.0209C66.7344 13.1247 66.7047 13.2063 66.6454 13.2656C66.5861 13.3249 66.5045 13.3546 66.4007 13.3546H62.2844C62.2103 13.3546 62.1732 13.3917 62.1732 13.4659V15.7798C62.1732 15.854 62.2103 15.8911 62.2844 15.8911H68.9371C69.041 15.8911 69.1226 15.9208 69.1819 15.9801C69.2412 16.0394 69.2709 16.121 69.2709 16.2248V19.1396C69.2709 19.2434 69.2412 19.325 69.1819 19.3843C69.1226 19.4437 69.041 19.4733 68.9371 19.4733H58.324C58.2201 19.4733 58.1386 19.4437 58.0792 19.3843C58.0199 19.325 57.9902 19.2434 57.9902 19.1396V4.23218C57.9902 4.12835 58.0199 4.04677 58.0792 3.98744C58.1386 3.9281 58.2201 3.89844 58.324 3.89844H68.9371C69.041 3.89844 69.1226 3.9281 69.1819 3.98744C69.2412 4.04677 69.2709 4.12835 69.2709 4.23218V7.14691Z" fill="white"/>
<path d="M82.4942 7.14691C82.4942 7.25075 82.4646 7.33233 82.4052 7.39166C82.3459 7.45099 82.2643 7.48066 82.1605 7.48066H75.53C75.4559 7.48066 75.4188 7.51774 75.4188 7.59191V9.68339C75.4188 9.75756 75.4559 9.79464 75.53 9.79464H79.6463C79.7501 9.79464 79.8317 9.82431 79.891 9.88364C79.9503 9.94298 79.98 10.0246 79.98 10.1284V13.0209C79.98 13.1247 79.9503 13.2063 79.891 13.2656C79.8317 13.3249 79.7501 13.3546 79.6463 13.3546H75.53C75.4559 13.3546 75.4188 13.3917 75.4188 13.4659V19.1396C75.4188 19.2434 75.3891 19.325 75.3298 19.3843C75.2705 19.4437 75.1889 19.4733 75.085 19.4733H71.5696C71.4657 19.4733 71.3842 19.4437 71.3248 19.3843C71.2655 19.325 71.2358 19.2434 71.2358 19.1396V4.23218C71.2358 4.12835 71.2655 4.04677 71.3248 3.98744C71.3842 3.9281 71.4657 3.89844 71.5696 3.89844H82.1605C82.2643 3.89844 82.3459 3.9281 82.4052 3.98744C82.4646 4.04677 82.4942 4.12835 82.4942 4.23218V7.14691Z" fill="white"/>
</svg>
