<svg width="101" height="409" viewBox="0 0 101 409" fill="none" xmlns="http://www.w3.org/2000/svg">
<path opacity="0.6" fill-rule="evenodd" clip-rule="evenodd" d="M56.8801 0.157044C54.5558 0.135361 52.2706 0.755258 50.2758 1.94853L13.0722 24.2039C10.3172 25.852 11.3489 30.0701 14.5536 30.2605L46.8507 32.1796L41.0633 32.4479L29.13 32.8764C26.1028 32.9851 24.9273 36.8634 27.3847 38.6345L80.4571 76.8836C82.6157 78.4393 85.6164 76.8143 85.4932 74.1564L83.6896 35.2474C83.6755 34.9432 83.6332 34.647 83.5654 34.3612L96.8639 35.1514C99.7407 35.3224 101.099 31.6639 98.8072 29.9163L62.1611 1.96849C60.6425 0.810349 58.7899 0.17486 56.8801 0.157044Z" fill="white"/>
<path d="M19.999 85.2607C19.9681 87.0168 21.3667 88.4654 23.1228 88.4963L67.6119 89.2785L77.5687 89.2785C80.4996 89.2785 81.8702 85.6502 79.6712 83.7124L23.5168 34.2268C22.4998 33.3306 20.8996 34.0365 20.8757 35.3919L19.999 85.2607Z" fill="white"/>
<g opacity="0.6">
<path d="M12.0556 116.593C12.0556 114.283 12.5138 112.23 13.4303 110.434C14.3835 108.674 15.7032 107.299 17.3895 106.31C19.1125 105.356 21.0921 104.88 23.3284 104.88L40.21 104.88C43.6193 104.88 46.3321 105.943 48.3484 108.069C50.4013 110.232 51.4277 113.073 51.4277 116.593C51.4277 120.112 50.4196 122.935 48.4033 125.061C46.3871 127.187 43.7109 128.25 40.3749 128.25L39.935 128.25C39.7517 128.25 39.6051 128.195 39.4951 128.085C39.3851 127.975 39.3302 127.847 39.3302 127.7L39.1102 123.521C39.1102 123.155 39.2935 122.971 39.6601 122.971L40.4849 122.971C42.3912 122.971 43.9309 122.385 45.104 121.212C46.2771 120.039 46.8636 118.499 46.8636 116.593C46.8636 114.686 46.2771 113.128 45.104 111.918C43.9309 110.745 42.3912 110.159 40.4849 110.159L22.9984 110.159C21.0921 110.159 19.5524 110.745 18.3793 111.918C17.2062 113.128 16.6197 114.686 16.6197 116.593C16.6197 118.499 17.2062 120.039 18.3793 121.212C19.5524 122.385 21.0921 122.971 22.9984 122.971L23.7683 122.971C24.1349 122.971 24.3182 123.155 24.3182 123.521L24.0982 127.7C24.0982 128.067 23.9149 128.25 23.5483 128.25L23.1634 128.25C20.9638 128.25 19.0209 127.755 17.3345 126.766C15.6482 125.812 14.3468 124.456 13.4303 122.696C12.5138 120.937 12.0556 118.902 12.0556 116.593Z" fill="white"/>
<path d="M12.0006 143.387C12.0006 141.041 12.4772 138.97 13.4303 137.173C14.4201 135.414 15.7949 134.039 17.5545 133.049C19.3142 132.059 21.3487 131.565 23.6583 131.565L39.8251 131.565C42.0979 131.565 44.1142 132.059 45.8738 133.049C47.6335 134.039 48.9899 135.414 49.943 137.173C50.9328 138.97 51.4277 141.041 51.4277 143.387C51.4277 145.733 50.9328 147.805 49.943 149.601C48.9899 151.397 47.6335 152.79 45.8738 153.78C44.1142 154.77 42.0979 155.265 39.8251 155.265L23.6583 155.265C21.3487 155.265 19.3142 154.77 17.5545 153.78C15.7949 152.79 14.4201 151.397 13.4303 149.601C12.4772 147.805 12.0006 145.733 12.0006 143.387ZM16.6197 143.387C16.6197 145.367 17.2429 146.962 18.4893 148.171C19.7357 149.381 21.3854 149.986 23.4383 149.986L39.935 149.986C41.988 149.986 43.656 149.381 44.939 148.171C46.2221 146.962 46.8636 145.367 46.8636 143.387C46.8636 141.444 46.2221 139.868 44.939 138.658C43.656 137.448 41.988 136.844 39.935 136.844L23.4383 136.844C21.4221 136.844 19.7724 137.448 18.4893 138.658C17.2429 139.868 16.6197 141.444 16.6197 143.387Z" fill="white"/>
<path d="M50.4379 178.91C50.8045 178.91 50.9878 179.093 50.9878 179.46L50.9878 183.639C50.9878 184.005 50.8045 184.189 50.4379 184.189L13.0454 184.189C12.6788 184.189 12.4955 184.005 12.4955 183.639L12.4955 179.24C12.4955 178.91 12.6238 178.69 12.8804 178.58L39.5501 165.327C39.6234 165.254 39.6601 165.181 39.6601 165.107C39.6601 165.071 39.6051 165.052 39.4951 165.052L13.0454 165.107C12.6788 165.107 12.4955 164.924 12.4955 164.558L12.4955 160.378C12.4955 160.012 12.6788 159.829 13.0454 159.829L50.4379 159.829C50.8045 159.829 50.9878 160.012 50.9878 160.378L50.9878 164.778C50.9878 165.107 50.8595 165.327 50.6029 165.437L23.9332 178.635C23.8599 178.708 23.8232 178.763 23.8232 178.8C23.8232 178.873 23.8782 178.91 23.9882 178.91L50.4379 178.91Z" fill="white"/>
<path d="M12.0556 199.746C12.0556 197.4 12.4772 195.328 13.3203 193.532C14.2002 191.772 15.4099 190.398 16.9496 189.408C18.4893 188.455 20.2856 187.978 22.3385 187.978L23.8232 187.978C24.1898 187.978 24.3731 188.161 24.3731 188.528L24.3731 192.597C24.3731 192.964 24.1898 193.147 23.8232 193.147L22.6135 193.147C20.8172 193.147 19.3691 193.752 18.2694 194.962C17.1696 196.208 16.6197 197.876 16.6197 199.966C16.6197 201.835 17.1146 203.302 18.1044 204.365C19.1309 205.465 20.4689 206.015 22.1186 206.015C23.2184 206.015 24.1715 205.74 24.978 205.19C25.7845 204.64 26.536 203.833 27.2326 202.77C27.9291 201.744 28.8089 200.241 29.872 198.261C31.0451 196.025 32.0899 194.229 33.0064 192.872C33.9229 191.552 35.0777 190.453 36.4707 189.573C37.8638 188.693 39.5501 188.253 41.5297 188.253C44.6091 188.253 47.0286 189.261 48.7883 191.277C50.5479 193.294 51.4277 195.97 51.4277 199.306C51.4277 201.615 50.9878 203.65 50.108 205.41C49.2282 207.169 47.9818 208.526 46.3687 209.479C44.7924 210.469 42.9594 210.964 40.8698 210.964L39.6051 210.964C39.2385 210.964 39.0552 210.78 39.0552 210.414L39.0552 206.289C39.0552 205.923 39.2385 205.74 39.6051 205.74L40.7599 205.74C42.5562 205.74 44.0225 205.153 45.159 203.98C46.2954 202.807 46.8636 201.212 46.8636 199.196C46.8636 197.4 46.4054 195.988 45.4889 194.962C44.5724 193.972 43.271 193.477 41.5847 193.477C40.4849 193.477 39.5501 193.715 38.7803 194.192C38.0104 194.705 37.2772 195.475 36.5807 196.501C35.9208 197.528 35.0777 199.049 34.0512 201.066C32.6215 203.595 31.4484 205.501 30.5319 206.784C29.6154 208.104 28.4973 209.167 27.1776 209.974C25.8578 210.817 24.2632 211.239 22.3935 211.239C19.2408 211.239 16.7297 210.194 14.86 208.104C12.9904 206.051 12.0556 203.265 12.0556 199.746Z" fill="white"/>
<path d="M50.9878 235.773C50.9878 236.139 50.8045 236.323 50.4379 236.323L46.9186 236.323C46.552 236.323 46.3687 236.139 46.3687 235.773L46.3687 226.919C46.3687 226.773 46.2954 226.699 46.1488 226.699L13.0454 226.699C12.6788 226.699 12.4955 226.516 12.4955 226.15L12.4955 221.97C12.4955 221.604 12.6788 221.42 13.0454 221.42L46.1488 221.42C46.2954 221.42 46.3687 221.347 46.3687 221.201L46.3687 212.732C46.3687 212.366 46.552 212.182 46.9186 212.182L50.4379 212.182C50.8045 212.182 50.9878 212.366 50.9878 212.732L50.9878 235.773Z" fill="white"/>
<path d="M12.4955 258.254C12.4955 257.961 12.6421 257.759 12.9354 257.649L29.3221 251.271C29.4321 251.234 29.4871 251.161 29.4871 251.051L29.4871 245.167C29.4871 245.02 29.4138 244.947 29.2672 244.947L13.0454 244.947C12.6788 244.947 12.4955 244.763 12.4955 244.397L12.4955 240.218C12.4955 239.851 12.6788 239.668 13.0454 239.668L50.4379 239.668C50.8045 239.668 50.9878 239.851 50.9878 240.218L50.9878 252.535C50.9878 255.615 49.9797 258.089 47.9634 259.959C45.9472 261.828 43.3077 262.763 40.045 262.763C37.5888 262.763 35.4809 262.195 33.7213 261.059C31.9616 259.922 30.7519 258.364 30.092 256.384C30.0553 256.275 29.9637 256.238 29.8171 256.275L13.1554 262.983L12.9354 263.038C12.6421 263.038 12.4955 262.873 12.4955 262.543L12.4955 258.254ZM46.4237 245.167C46.4237 245.02 46.3504 244.947 46.2038 244.947L33.8862 244.947C33.7396 244.947 33.6663 245.02 33.6663 245.167L33.6663 251.82C33.6663 253.507 34.2345 254.863 35.3709 255.89C36.544 256.953 38.0837 257.484 39.99 257.484C41.933 257.484 43.491 256.971 44.6641 255.945C45.8372 254.918 46.4237 253.543 46.4237 251.82L46.4237 245.167Z" fill="white"/>
<path d="M12.0556 277.896C12.0556 275.587 12.5322 273.534 13.4853 271.738C14.4751 269.978 15.8498 268.603 17.6095 267.613C19.4058 266.66 21.477 266.184 23.8232 266.184L50.4379 266.184C50.8045 266.184 50.9878 266.367 50.9878 266.734L50.9878 270.913C50.9878 271.279 50.8045 271.463 50.4379 271.463L23.4933 271.463C21.4404 271.463 19.7724 272.049 18.4893 273.222C17.2429 274.432 16.6197 275.99 16.6197 277.896C16.6197 279.839 17.2429 281.397 18.4893 282.57C19.7724 283.78 21.4404 284.385 23.4933 284.385L50.4379 284.385C50.8045 284.385 50.9878 284.568 50.9878 284.935L50.9878 289.114C50.9878 289.481 50.8045 289.664 50.4379 289.664L23.8232 289.664C21.477 289.664 19.4058 289.169 17.6095 288.179C15.8498 287.226 14.4751 285.851 13.4853 284.055C12.5322 282.295 12.0556 280.243 12.0556 277.896Z" fill="white"/>
<path d="M12.0556 305.104C12.0556 302.794 12.5138 300.741 13.4303 298.945C14.3835 297.185 15.7032 295.811 17.3895 294.821C19.1125 293.868 21.0921 293.391 23.3283 293.391L40.21 293.391C43.6193 293.391 46.3321 294.454 48.3483 296.581C50.4013 298.743 51.4277 301.585 51.4277 305.104C51.4277 308.623 50.4196 311.446 48.4033 313.572C46.3871 315.698 43.7109 316.762 40.3749 316.762L39.935 316.762C39.7517 316.762 39.6051 316.707 39.4951 316.597C39.3851 316.487 39.3301 316.358 39.3301 316.212L39.1102 312.033C39.1102 311.666 39.2935 311.483 39.6601 311.483L40.4849 311.483C42.3912 311.483 43.9309 310.896 45.104 309.723C46.2771 308.55 46.8636 307.01 46.8636 305.104C46.8636 303.198 46.2771 301.64 45.104 300.43C43.9309 299.257 42.3912 298.67 40.4849 298.67L22.9984 298.67C21.0921 298.67 19.5524 299.257 18.3793 300.43C17.2062 301.64 16.6197 303.198 16.6197 305.104C16.6197 307.01 17.2062 308.55 18.3793 309.723C19.5524 310.896 21.0921 311.483 22.9984 311.483L23.7683 311.483C24.1348 311.483 24.3181 311.666 24.3181 312.033L24.0982 316.212C24.0982 316.578 23.9149 316.762 23.5483 316.762L23.1634 316.762C20.9638 316.762 19.0209 316.267 17.3345 315.277C15.6482 314.324 14.3468 312.967 13.4303 311.208C12.5138 309.448 12.0556 307.413 12.0556 305.104Z" fill="white"/>
<path d="M50.9878 342.297C50.9878 342.663 50.8045 342.847 50.4379 342.847L46.9186 342.847C46.552 342.847 46.3687 342.663 46.3687 342.297L46.3687 333.443C46.3687 333.297 46.2954 333.223 46.1488 333.223L13.0454 333.223C12.6788 333.223 12.4955 333.04 12.4955 332.674L12.4955 328.494C12.4955 328.128 12.6788 327.945 13.0454 327.945L46.1488 327.945C46.2954 327.945 46.3687 327.871 46.3687 327.725L46.3687 319.256C46.3687 318.89 46.552 318.706 46.9186 318.706L50.4379 318.706C50.8045 318.706 50.9878 318.89 50.9878 319.256L50.9878 342.297Z" fill="white"/>
<path d="M12.4955 346.742C12.4955 346.375 12.6788 346.192 13.0454 346.192L50.4379 346.192C50.8045 346.192 50.9878 346.375 50.9878 346.742L50.9878 350.921C50.9878 351.287 50.8045 351.471 50.4379 351.471L13.0454 351.471C12.6788 351.471 12.4955 351.287 12.4955 350.921L12.4955 346.742Z" fill="white"/>
<path d="M12.0006 367.815C12.0006 365.469 12.4772 363.398 13.4303 361.602C14.4201 359.842 15.7948 358.467 17.5545 357.477C19.3141 356.488 21.3487 355.993 23.6583 355.993L39.825 355.993C42.0979 355.993 44.1142 356.488 45.8738 357.477C47.6335 358.467 48.9899 359.842 49.943 361.602C50.9328 363.398 51.4277 365.469 51.4277 367.815C51.4277 370.162 50.9328 372.233 49.943 374.029C48.9899 375.826 47.6335 377.219 45.8738 378.208C44.1142 379.198 42.0979 379.693 39.825 379.693L23.6583 379.693C21.3487 379.693 19.3141 379.198 17.5545 378.208C15.7948 377.219 14.4201 375.826 13.4303 374.029C12.4772 372.233 12.0006 370.162 12.0006 367.815ZM16.6197 367.815C16.6197 369.795 17.2429 371.39 18.4893 372.599C19.7357 373.809 21.3854 374.414 23.4383 374.414L39.935 374.414C41.9879 374.414 43.6559 373.809 44.939 372.599C46.2221 371.39 46.8636 369.795 46.8636 367.815C46.8636 365.872 46.2221 364.296 44.939 363.086C43.6559 361.877 41.9879 361.272 39.935 361.272L23.4383 361.272C21.4221 361.272 19.7724 361.877 18.4893 363.086C17.2429 364.296 16.6197 365.872 16.6197 367.815Z" fill="white"/>
<path d="M50.4379 403.338C50.8045 403.338 50.9878 403.521 50.9878 403.888L50.9878 408.067C50.9878 408.434 50.8045 408.617 50.4379 408.617L13.0454 408.617C12.6788 408.617 12.4955 408.434 12.4955 408.067L12.4955 403.668C12.4955 403.338 12.6238 403.118 12.8804 403.008L39.5501 389.756C39.6234 389.682 39.6601 389.609 39.6601 389.536C39.6601 389.499 39.6051 389.481 39.4951 389.481L13.0454 389.536C12.6788 389.536 12.4955 389.352 12.4955 388.986L12.4955 384.807C12.4955 384.44 12.6788 384.257 13.0454 384.257L50.4379 384.257C50.8045 384.257 50.9878 384.44 50.9878 384.807L50.9878 389.206C50.9878 389.536 50.8595 389.756 50.6029 389.866L23.9332 403.063C23.8599 403.136 23.8232 403.191 23.8232 403.228C23.8232 403.301 23.8782 403.338 23.9882 403.338L50.4379 403.338Z" fill="white"/>
</g>
<path d="M61.7294 124.236C61.7294 123.759 61.931 123.448 62.3342 123.301L76.3015 117.252C76.4481 117.179 76.5214 117.069 76.5214 116.922L76.5214 114.613C76.5214 114.43 76.4298 114.338 76.2465 114.338L62.5542 114.338C62.2976 114.338 62.096 114.265 61.9493 114.118C61.8027 113.971 61.7294 113.77 61.7294 113.513L61.7294 104.825C61.7294 104.568 61.8027 104.367 61.9493 104.22C62.096 104.073 62.2976 104 62.5542 104L99.3968 104C99.6535 104 99.8551 104.073 100.002 104.22C100.148 104.367 100.222 104.568 100.222 104.825L100.222 121.487C100.222 123.979 99.7084 126.161 98.682 128.03C97.6555 129.936 96.2075 131.403 94.3379 132.429C92.5049 133.492 90.3786 134.024 87.9591 134.024C85.5396 134.024 83.4134 133.419 81.5804 132.209C79.7841 131.036 78.4644 129.405 77.6212 127.315C77.5479 127.132 77.4196 127.077 77.2363 127.15L62.7192 134.134C62.4992 134.207 62.3709 134.244 62.3342 134.244C62.1509 134.244 62.0043 134.171 61.8943 134.024C61.7844 133.877 61.7294 133.694 61.7294 133.474L61.7294 124.236ZM91.3684 114.613C91.3684 114.43 91.2768 114.338 91.0935 114.338L84.6598 114.338C84.4765 114.338 84.3848 114.43 84.3848 114.613L84.3848 119.782C84.3848 120.955 84.6964 121.908 85.3197 122.641C85.9795 123.374 86.8227 123.741 87.8492 123.741C88.9123 123.741 89.7554 123.374 90.3786 122.641C91.0385 121.908 91.3684 120.955 91.3684 119.782L91.3684 114.613Z" fill="white"/>
<path d="M92.1933 167.085C91.9367 167.085 91.735 167.012 91.5884 166.865C91.4418 166.719 91.3684 166.517 91.3684 166.26L91.3684 149.819C91.3684 149.635 91.2768 149.544 91.0935 149.544L85.9245 149.544C85.7412 149.544 85.6496 149.635 85.6496 149.819L85.6496 159.992C85.6496 160.248 85.5763 160.45 85.4296 160.597C85.283 160.743 85.0814 160.817 84.8248 160.817L77.6762 160.817C77.4196 160.817 77.2179 160.743 77.0713 160.597C76.9247 160.45 76.8513 160.248 76.8513 159.992L76.8513 149.819C76.8513 149.635 76.7597 149.544 76.5764 149.544L70.8575 149.544C70.6742 149.544 70.5826 149.635 70.5826 149.819L70.5826 166.26C70.5826 166.517 70.5093 166.719 70.3626 166.865C70.216 167.012 70.0144 167.085 69.7578 167.085L62.5542 167.085C62.2976 167.085 62.096 167.012 61.9493 166.865C61.8027 166.719 61.7294 166.517 61.7294 166.26L61.7294 140.031C61.7294 139.774 61.8027 139.572 61.9493 139.426C62.096 139.279 62.2976 139.206 62.5542 139.206L99.3968 139.206C99.6535 139.206 99.8551 139.279 100.002 139.426C100.148 139.572 100.222 139.774 100.222 140.031L100.222 166.26C100.222 166.517 100.148 166.719 100.002 166.865C99.8551 167.012 99.6535 167.085 99.3968 167.085L92.1933 167.085Z" fill="white"/>
<path d="M92.1933 199.766C91.9367 199.766 91.735 199.693 91.5884 199.546C91.4418 199.399 91.3684 199.198 91.3684 198.941L91.3684 182.554C91.3684 182.371 91.2768 182.279 91.0935 182.279L85.9245 182.279C85.7412 182.279 85.6496 182.371 85.6496 182.554L85.6496 192.727C85.6496 192.984 85.5763 193.186 85.4296 193.332C85.283 193.479 85.0814 193.552 84.8248 193.552L77.6762 193.552C77.4196 193.552 77.2179 193.479 77.0713 193.332C76.9247 193.186 76.8513 192.984 76.8513 192.727L76.8513 182.554C76.8513 182.371 76.7597 182.279 76.5764 182.279L62.5542 182.279C62.2976 182.279 62.096 182.206 61.9493 182.059C61.8027 181.913 61.7294 181.711 61.7294 181.455L61.7294 172.766C61.7294 172.51 61.8027 172.308 61.9493 172.161C62.096 172.015 62.2976 171.941 62.5542 171.941L99.3968 171.941C99.6535 171.941 99.8551 172.015 100.002 172.161C100.148 172.308 100.222 172.51 100.222 172.766L100.222 198.941C100.222 199.198 100.148 199.399 100.002 199.546C99.8551 199.693 99.6535 199.766 99.3968 199.766L92.1933 199.766Z" fill="white"/>
</svg>
